SRRun01_grf
version=1
nRows=12
nColumns=19
inDegrees=no
endheader
time	ground_force_r_vx	ground_force_r_vy	ground_force_r_vz	ground_force_r_px	ground_force_r_py	ground_force_r_pz	ground_force_r_mx	ground_force_r_my	ground_force_r_mz	ground_force_l_vx	ground_force_l_vy	ground_force_l_vz	ground_force_l_px	ground_force_l_py	ground_force_l_pz	ground_force_l_mx	ground_force_l_my	ground_force_l_mz
    142.49700000	      0.00000000	      0.00000000	      0.00000000	      0.00000000	      0.00000000	      0.00000000	      0.00000000	      0.00000000	      0.00000000	    -40.55693306	    820.81469196	   -120.38684062	      0.79902854	      0.00000000	     -0.70598807	      0.00002743	      7.35659696	      0.00003446
    142.49800000	      0.00000000	      0.00000000	      0.00000000	      0.00000000	      0.00000000	      0.00000000	      0.00000000	      0.00000000	      0.00000000	    -43.32202291	    803.70067353	   -118.64816294	      0.79911984	      0.00000000	     -0.70291673	      0.00002728	      8.15231616	      0.00003483
    142.49900000	      0.00000000	      0.00000000	      0.00000000	      0.00000000	      0.00000000	      0.00000000	      0.00000000	      0.00000000	      0.00000000	    -45.94590953	    786.32602605	   -116.61228223	      0.79906951	      0.00000000	     -0.69999119	      0.00002702	      7.80694413	      0.00003499
    142.50000000	      0.00000000	      0.00000000	      0.00000000	      0.00000000	      0.00000000	      0.00000000	      0.00000000	      0.00000000	      0.00000000	    -48.41444493	    768.78283052	   -114.58420258	      0.79886154	      0.00000000	     -0.69721994	      0.00002665	      6.29627430	      0.00003495
    142.50100000	      0.00000000	      0.00000000	      0.00000000	      0.00000000	      0.00000000	      0.00000000	      0.00000000	      0.00000000	      0.00000000	    -50.66954323	    751.14498996	   -112.84865960	      0.79849065	      0.00000000	     -0.69456587	      0.00002616	      3.68609787	      0.00003469
    142.50200000	      0.00000000	      0.00000000	      0.00000000	      0.00000000	      0.00000000	      0.00000000	      0.00000000	      0.00000000	      0.00000000	    -52.60615679	    733.46376560	   -111.63882092	      0.79796482	      0.00000000	     -0.69195378	      0.00002559	      0.12727862	      0.00003421
    142.50300000	      0.00000000	      0.00000000	      0.00000000	      0.00000000	      0.00000000	      0.00000000	      0.00000000	      0.00000000	      0.00000000	    -54.07622964	    715.76876850	   -111.11123415	      0.79730671	      0.00000000	     -0.68928482	      0.00002494	     -4.15389799	      0.00003352
    142.50400000	      0.00000000	      0.00000000	      0.00000000	      0.00000000	      0.00000000	      0.00000000	      0.00000000	      0.00000000	      0.00000000	    -54.90000840	    698.07358858	   -111.32928653	      0.79655340	      0.00000000	     -0.68645556	      0.00002424	     -8.86963356	      0.00003265
    142.50500000	      0.00000000	      0.00000000	      0.00000000	      0.00000000	      0.00000000	      0.00000000	      0.00000000	      0.00000000	      0.00000000	    -54.88401105	    680.38450573	   -112.25679108	      0.79575443	      0.00000000	     -0.68337857	      0.00002353	    -13.68836664	      0.00003159
    142.50600000	      0.00000000	      0.00000000	      0.00000000	      0.00000000	      0.00000000	      0.00000000	      0.00000000	      0.00000000	      0.00000000	    -53.84383455	    662.71039337	   -113.76255985	      0.79496822	      0.00000000	     -0.68000149	      0.00002283	    -18.25580629	      0.00003037
    142.50700000	      0.00000000	      0.00000000	      0.00000000	      0.00000000	      0.00000000	      0.00000000	      0.00000000	      0.00000000	      0.00000000	    -51.62906265	    645.07192077	   -115.63582240	      0.79425739	      0.00000000	     -0.67632146	      0.00002216	    -22.21837412	      0.00002900
    142.50800000	      0.00000000	      0.00000000	      0.00000000	      0.00000000	      0.00000000	      0.00000000	      0.00000000	      0.00000000	      0.00000000	    -48.14699987	    627.50839577	   -117.61105689	      0.79368346	      0.00000000	     -0.67239279	      0.00002153	    -25.24782931	      0.00002753
